<svg xmlns="http://www.w3.org/2000/svg" viewBox="0 0 64 64">
  <rect width="64" height="64" rx="12" fill="#ffffff"/>
  <!-- R letter - black -->
  <path d="M10 48V16h12c3.2 0 5.7.9 7.5 2.7 1.8 1.8 2.7 4 2.7 6.5 0 2-.5 3.8-1.6 5.3-1.1 1.5-2.5 2.5-4.3 3.1L33 48h-5.5l-6-13.5H15.5V48H10zm5.5-18.5h6.8c1.8 0 3.2-.5 4.2-1.5s1.5-2.3 1.5-3.8c0-1.6-.5-2.8-1.5-3.8s-2.4-1.4-4.2-1.4h-6.8v10.5z" fill="#000000"/>
  <!-- P letter - blue -->
  <path d="M36 48V16h11.5c3.2 0 5.8.9 7.6 2.8 1.8 1.9 2.7 4.2 2.7 7 0 2.8-.9 5.2-2.7 7-1.8 1.9-4.4 2.8-7.6 2.8H41.5V48H36zm5.5-17.4h6c1.8 0 3.2-.5 4.2-1.6 1-1.1 1.5-2.4 1.5-4.1 0-1.7-.5-3.1-1.5-4.1-1-1.1-2.4-1.6-4.2-1.6h-6v11.4z" fill="#135bec"/>
</svg>
